<svg xmlns="http://www.w3.org/2000/svg" xmlns:xlink="http://www.w3.org/1999/xlink" width="170.463" height="30.335" viewBox="0 0 170.463 30.335"><defs><clipPath id="a"><rect width="170.463" height="30.335" fill="none"/></clipPath></defs><g clip-path="url(#a)"><g transform="translate(0 0)"><g transform="translate(0 0)"><path d="M167.436,18.04l-1.375-1.369c-5.1-4.51-8.431-7.552-8.431-11.281A5.318,5.318,0,0,1,163.021,0a5.9,5.9,0,0,1,4.415,2.059A5.9,5.9,0,0,1,171.85,0a5.319,5.319,0,0,1,5.391,5.39c0,3.73-3.332,6.771-8.431,11.281Z" transform="translate(-142.88 0)" fill="#00ce4b"/><path d="M346.357,182.332c-.364.4-.8.737-1.195,1.1-.478.435-.969.855-1.464,1.27-.922.769-1.862,1.515-2.789,2.279a2.549,2.549,0,0,0-.983-1.131,5.178,5.178,0,0,0-2.125-.735,4.617,4.617,0,0,1,1.92-1.152,10.2,10.2,0,0,0,2.085-1.415,4.2,4.2,0,0,1,2.24-1.042A2.779,2.779,0,0,1,346.357,182.332Z" transform="translate(-306.19 -164.514)" fill="#414141"/><path d="M332.216,168.535a2.222,2.222,0,0,1-.324.545,4.831,4.831,0,0,0-.679-.084,3.954,3.954,0,0,0-2.535.946,12.278,12.278,0,0,1-2.256,1.552,4.448,4.448,0,0,0-2.139,1.4.018.018,0,0,0,0,.007c-.248-.026-.494-.043-.734-.053l-.249,0a9.069,9.069,0,0,1,1.965-1.5,22.118,22.118,0,0,0,2.218-1.553,8.642,8.642,0,0,1,2.306-1.5A2.352,2.352,0,0,1,332.216,168.535Z" transform="translate(-293.047 -152.347)" fill="#414141"/><path d="M307.028,167.311a8.686,8.686,0,0,0-1.819,1.205c-.37.295-.734.6-1.116.875-.4.292-.828.55-1.25.811a8.979,8.979,0,0,0-2.339,1.85c-.621,0-1.243.047-1.863.094a14.667,14.667,0,0,1,1.828-1.454,20.691,20.691,0,0,0,2.021-1.721,6.833,6.833,0,0,1,2.128-1.484A4.257,4.257,0,0,1,307.028,167.311Z" transform="translate(-270.695 -151.566)" fill="#414141"/><path d="M25.936,187.421a.548.548,0,0,1-.1-.017c-.222-.021-.444-.037-.666-.051l-.561-.027c-.008,0-.08.007-.087,0-.3-.007-.6-.006-.9.007l-.319.018c-.281.019-.555.046-.83.085a11.772,11.772,0,0,0-3.567,1.115c-.2.094-.367-.2-.171-.292a11.954,11.954,0,0,1,3.981-1.193,15.69,15.69,0,0,1,3.2,0,.443.443,0,0,1,.06.006c.157.015.313.032.468.05,1.044.123,2.078.319,3.126.412a7.692,7.692,0,0,0,3.182-.234c.79-.274,1.95-.655,1.695-1.663-.246-.978-1.327-1.181-2.209-1.431a12.1,12.1,0,0,0-3.625-.32c-1.215.032-2.416-.187-3.623-.218a7.184,7.184,0,0,1-3.292-1.055.162.162,0,0,1-.037-.02l-.016-.011h0l-.011-.007c-1.644-1.133-3.417-2.6-5.507-2.666a14.038,14.038,0,0,0-3.233.482,9.021,9.021,0,0,1-1.6.226c-.536.01-1.067,0-1.6,0a9.836,9.836,0,0,0-3.649.512,14.745,14.745,0,0,0-3.174,1.68,23.648,23.648,0,0,0-2.689,2.347L0,185.32l4.548,6.794a7.652,7.652,0,0,1,.848-.542,6.818,6.818,0,0,1,3.427-.838,17.7,17.7,0,0,1,3.665.51c1.341.307,2.665.677,3.994,1.029s2.653.684,4,.911a10.556,10.556,0,0,0,4.007.055.131.131,0,0,1,.037,0,17.789,17.789,0,0,0,3.284-2.77c.508-.5,1.015-1.009,1.552-1.481a10.288,10.288,0,0,1,1.31-1.04,30.305,30.305,0,0,1-3.906-.435Z" transform="translate(0 -163.075)" fill="#414141"/><path d="M299.67,212.494h.031v-.024Z" transform="translate(-271.628 -192.588)" fill="#212121"/></g></g><text transform="translate(53.463 25.078)" fill="#414141" font-size="20" font-family="Montserrat-Bold, Montserrat" font-weight="700" letter-spacing="0.02em"><tspan x="0" y="0">Charitypal.</tspan></text></g></svg>